<svg xmlns="http://www.w3.org/2000/svg" enable-background="new 0 0 32 32" viewBox="0 0 32 32"><path d="M30.81151,9.73853l-14.00049-9c-0.49414-0.31836-1.12793-0.31836-1.62207,0l-14,9c-0.69678,0.44824-0.89893,1.37598-0.45068,2.07324c0.44727,0.69531,1.375,0.89648,2.07275,0.4502l13.18896-8.47852l13.18848,8.47852c0.25098,0.16113,0.53223,0.23828,0.81055,0.23828c0.49316,0,0.97656-0.24316,1.2627-0.68848C31.70995,11.1145,31.5078,10.18677,30.81151,9.73853z"/><path d="M25.99999,11.29126c-0.82813,0-1.5,0.67188-1.5,1.5v13.20898c0,1.37891-1.12109,2.5-2.5,2.5h-0.83887v-4.29883c0-2.8457-2.31543-5.16113-5.16113-5.16113s-5.16064,2.31543-5.16064,5.16113v4.29883H9.99999c-1.37842,0-2.5-1.12109-2.5-2.5V12.79126c0-0.82813-0.67139-1.5-1.5-1.5s-1.5,0.67188-1.5,1.5v13.20898c0,3.03223,2.46729,5.5,5.5,5.5h12c3.03223,0,5.5-2.46777,5.5-5.5V12.79126C27.49999,11.96313,26.82811,11.29126,25.99999,11.29126z M13.83934,28.50024v-4.29883c0-1.19141,0.96924-2.16113,2.16064-2.16113s2.16113,0.96973,2.16113,2.16113v4.29883H13.83934z"/></svg>