<svg xmlns="http://www.w3.org/2000/svg" width="32" height="32" viewBox="0 0 8.467 8.467"><path d="m 4.7581554,289.0539 c -1.7573492,0 -3.1874025,1.43212 -3.1874025,3.18947 0,0.78342 0.2853002,1.50055 0.7560262,2.0562 l -1.72495926,1.72496 a 0.26460982,0.26460982 0 1 0 0.3751707,0.37311 l 1.72392586,-1.72393 c 0.5557648,0.47114 1.273436,0.75706 2.057239,0.75706 1.75735,0 3.187402,-1.43005 3.187402,-3.1874 0,-1.75735 -1.430052,-3.18947 -3.187402,-3.18947 z m 0,0.55656 c 1.457408,0 2.632914,1.1755 2.632914,2.63291 0,1.45741 -1.175506,2.6324 -2.632914,2.6324 -1.4574083,0 -2.6329144,-1.17499 -2.6329144,-2.6324 0,-1.45741 1.1755061,-2.63291 2.6329144,-2.63291 z" color="#000" font-family="sans-serif" font-weight="400" overflow="visible" transform="translate(0 -288.533)" white-space="normal" style="line-height:normal;font-variant-ligatures:normal;font-variant-position:normal;font-variant-caps:normal;font-variant-numeric:normal;font-variant-alternates:normal;font-feature-settings:normal;text-indent:0;text-align:start;text-decoration-line:none;text-decoration-style:solid;text-decoration-color:#000;text-transform:none;text-orientation:mixed;shape-padding:0;isolation:auto;mix-blend-mode:normal"/></svg>